<?xml version="1.0" encoding="UTF-8" standalone="no"?>
<svg
   width="16"
   height="16"
   viewBox="0 0 16 16"
   stroke-width="1.5"
   fill="none"
   color="#000000"
   data-darkreader-inline-color=""
   version="1.1"
   id="svg11"
   xml:space="preserve"
   sodipodi:docname="path2093.svg"
   inkscape:version="1.4.3 (0d15f75042, 2025-12-25)"
   xmlns:inkscape="http://www.inkscape.org/namespaces/inkscape"
   xmlns:sodipodi="http://sodipodi.sourceforge.net/DTD/sodipodi-0.dtd"
   xmlns="http://www.w3.org/2000/svg"
   xmlns:svg="http://www.w3.org/2000/svg"><sodipodi:namedview
     id="namedview1"
     pagecolor="#505050"
     bordercolor="#ffffff"
     borderopacity="1"
     inkscape:showpageshadow="0"
     inkscape:pageopacity="0"
     inkscape:pagecheckerboard="1"
     inkscape:deskcolor="#505050"
     inkscape:zoom="50.75"
     inkscape:cx="7.9901478"
     inkscape:cy="7.5862069"
     inkscape:window-width="1920"
     inkscape:window-height="1018"
     inkscape:window-x="0"
     inkscape:window-y="0"
     inkscape:window-maximized="1"
     inkscape:current-layer="svg11" /><defs
     id="defs11" /><path
     d="m 15,15 v 1 h 1 v -1 z"
     style="fill:#fe93bd;fill-opacity:0"
     id="path2092" /><path
     d="m 14,15 v 1 h 1 v -1 z"
     style="fill:#fe93bd;fill-opacity:0"
     id="path2091" /><path
     d="m 13,15 v 1 h 1 v -1 z"
     style="fill:#fe93bd;fill-opacity:0"
     id="path2090" /><path
     d="m 12,15 v 1 h 1 v -1 z"
     style="fill:#fe93bd;fill-opacity:0"
     id="path2089" /><path
     d="m 10,15 v 1 h 1 v -1 z"
     style="fill:#fe93bd;fill-opacity:0"
     id="path2087" /><path
     d="m 5,15 v 1 h 1 v -1 z"
     style="fill:#fe93bd;fill-opacity:0"
     id="path2082" /><path
     d="m 4,15 v 1 h 1 v -1 z"
     style="fill:#fe93bd;fill-opacity:0"
     id="path2081" /><path
     d="m 3,15 v 1 h 1 v -1 z"
     style="fill:#fe93bd;fill-opacity:0"
     id="path2080" /><path
     d="m 2,15 v 1 h 1 v -1 z"
     style="fill:#fe93bd;fill-opacity:0"
     id="path2079" /><path
     d="m 1,15 v 1 h 1 v -1 z"
     style="fill:#fe93bd;fill-opacity:0"
     id="path2078" /><path
     d="m 0,15 v 1 h 1 v -1 z"
     style="fill:#fe93bd;fill-opacity:0"
     id="path2077" /><path
     d="m 15,14 v 1 h 1 v -1 z"
     style="fill:#fe93bd;fill-opacity:0"
     id="path2076" /><path
     d="m 14,14 v 1 h 1 v -1 z"
     style="fill:#fe93bd;fill-opacity:0"
     id="path2075" /><path
     d="m 13,14 v 1 h 1 v -1 z"
     style="fill:#fe93bd;fill-opacity:0"
     id="path2074" /><path
     d="m 7,14 v 1 h 1 v -1 z"
     style="fill:#fe93bd;fill-opacity:0.890196"
     id="path2068" /><path
     d="m 6,14 v 1 h 1 v -1 z"
     style="fill:#fe93bd;fill-opacity:0.905882"
     id="path2067" /><path
     d="m 5,14 v 1 h 1 v -1 z"
     style="fill:#fe93bd;fill-opacity:0.662745"
     id="path2066" /><path
     d="m 4,14 v 1 h 1 v -1 z"
     style="fill:#fe93bd;fill-opacity:0"
     id="path2065" /><path
     d="m 3,14 v 1 h 1 v -1 z"
     style="fill:#fe93bd;fill-opacity:0"
     id="path2064" /><path
     d="m 2,14 v 1 h 1 v -1 z"
     style="fill:#fe93bd;fill-opacity:0"
     id="path2063" /><path
     d="m 1,14 v 1 h 1 v -1 z"
     style="fill:#fe93bd;fill-opacity:0"
     id="path2062" /><path
     d="m 0,14 v 1 h 1 v -1 z"
     style="fill:#fe93bd;fill-opacity:0"
     id="path2061" /><path
     d="m 15,13 v 1 h 1 v -1 z"
     style="fill:#fe93bd;fill-opacity:0"
     id="path2060" /><path
     d="m 14,13 v 1 h 1 v -1 z"
     style="fill:#fe93bd;fill-opacity:0"
     id="path2059" /><path
     d="m 5,13 v 1 h 1 v -1 z"
     style="fill:#fe93bd;fill-opacity:0.941176"
     id="path2050" /><path
     d="m 4,13 v 1 h 1 v -1 z"
     style="fill:#fe93bd;fill-opacity:0.8"
     id="path2049" /><path
     d="m 3,13 v 1 h 1 v -1 z"
     style="fill:#fe93bd;fill-opacity:0.482353"
     id="path2048" /><path
     d="m 2,13 v 1 h 1 v -1 z"
     style="fill:#fe93bd;fill-opacity:0.0156863"
     id="path2047" /><path
     d="m 1,13 v 1 h 1 v -1 z"
     style="fill:#fe93bd;fill-opacity:0"
     id="path2046" /><path
     d="m 0,13 v 1 h 1 v -1 z"
     style="fill:#fe93bd;fill-opacity:0"
     id="path2045" /><path
     d="m 15,12 v 1 h 1 v -1 z"
     style="fill:#fe93bd;fill-opacity:0"
     id="path2044" /><path
     d="m 6,12 v 1 h 1 v -1 z"
     style="fill:#fe93bd;fill-opacity:0"
     id="path2035" /><path
     d="m 3,12 v 1 h 1 v -1 z"
     style="fill:#fe93bd;fill-opacity:0.741176"
     id="path2032" /><path
     d="m 2,12 v 1 h 1 v -1 z"
     style="fill:#fe93bd;fill-opacity:0.486275"
     id="path2031" /><path
     d="m 1,12 v 1 h 1 v -1 z"
     style="fill:#fe93bd;fill-opacity:0"
     id="path2030" /><path
     d="m 0,12 v 1 h 1 v -1 z"
     style="fill:#fe93bd;fill-opacity:0"
     id="path2029" /><path
     d="m 11,11 v 1 h 1 v -1 z"
     style="fill:#fe93bd;fill-opacity:0"
     id="path2024" /><path
     d="m 10,11 v 1 h 1 v -1 z"
     style="fill:#fe93bd;fill-opacity:0"
     id="path2023" /><path
     d="m 6,11 v 1 h 1 v -1 z"
     style="fill:#fe93bd;fill-opacity:0"
     id="path2019" /><path
     d="m 5,11 v 1 h 1 v -1 z"
     style="fill:#fe93bd;fill-opacity:0"
     id="path2018" /><path
     d="m 4,11 v 1 h 1 v -1 z"
     style="fill:#fe93bd;fill-opacity:0"
     id="path2017" /><path
     d="m 2,11 v 1 h 1 v -1 z"
     style="fill:#fe93bd;fill-opacity:0.776471"
     id="path2015" /><path
     d="m 1,11 v 1 h 1 v -1 z"
     style="fill:#fe93bd;fill-opacity:0"
     id="path2014" /><path
     d="m 0,11 v 1 h 1 v -1 z"
     style="fill:#fe93bd;fill-opacity:0"
     id="path2013" /><path
     d="m 15,10 v 1 h 1 v -1 z"
     style="fill:#fe93bd;fill-opacity:0"
     id="path2012" /><path
     d="m 11,10 v 1 h 1 v -1 z"
     style="fill:#fe93bd;fill-opacity:0"
     id="path2008" /><path
     d="m 6,10 v 1 h 1 v -1 z"
     style="fill:#fe93bd;fill-opacity:0"
     id="path2003" /><path
     d="m 5,10 v 1 h 1 v -1 z"
     style="fill:#fe93bd;fill-opacity:0"
     id="path2002" /><path
     d="m 4,10 v 1 h 1 v -1 z"
     style="fill:#fe93bd;fill-opacity:0"
     id="path2001" /><path
     d="m 2,10 v 1 h 1 v -1 z"
     style="fill:#fe93bd;fill-opacity:0.901961"
     id="path1999" /><path
     d="m 0,10 v 1 h 1 v -1 z"
     style="fill:#fe93bd;fill-opacity:0"
     id="path1997" /><path
     d="m 15,9 v 1 h 1 V 9 Z"
     style="fill:#fe93bd;fill-opacity:0"
     id="path1996" /><path
     d="m 6,9 v 1 H 7 V 9 Z"
     style="fill:#fe93bd;fill-opacity:0"
     id="path1987" /><path
     d="m 4,9 v 1 H 5 V 9 Z"
     style="fill:#fe93bd;fill-opacity:0.858824"
     id="path1985" /><path
     d="m 3,9 v 1 H 4 V 9 Z"
     style="fill:#fe93bd;fill-opacity:0.823529"
     id="path1984" /><path
     d="m 2,9 v 1 H 3 V 9 Z"
     style="fill:#fe93bd;fill-opacity:0.556863"
     id="path1983" /><path
     d="m 1,9 v 1 H 2 V 9 Z"
     style="fill:#fe93bd;fill-opacity:0.74902"
     id="path1982" /><path
     d="m 0,9 v 1 H 1 V 9 Z"
     style="fill:#fe93bd;fill-opacity:0"
     id="path1981" /><path
     d="m 9,8 v 1 h 1 V 8 Z"
     style="fill:#fe93bd;fill-opacity:0"
     id="path1974" /><path
     d="M 6,8 V 9 H 7 V 8 Z"
     style="fill:#fe93bd;fill-opacity:0"
     id="path1971" /><path
     d="M 5,8 V 9 H 6 V 8 Z"
     style="fill:#fe93bd;fill-opacity:0"
     id="path1970" /><path
     d="M 3,8 V 9 H 4 V 8 Z"
     style="fill:#fe93bd;fill-opacity:0"
     id="path1968" /><path
     d="M 2,8 V 9 H 3 V 8 Z"
     style="fill:#fe93bd;fill-opacity:0.0117647"
     id="path1967" /><path
     d="M 1,8 V 9 H 2 V 8 Z"
     style="fill:#fe93bd;fill-opacity:0.913725"
     id="path1966" /><path
     d="m 14,7 v 1 h 1 V 7 Z"
     style="fill:#fe93bd;fill-opacity:0.929412"
     id="path1963" /><path
     d="m 13,7 v 1 h 1 V 7 Z"
     style="fill:#fe93bd;fill-opacity:0.00784314"
     id="path1962" /><path
     d="m 12,7 v 1 h 1 V 7 Z"
     style="fill:#fe93bd;fill-opacity:0"
     id="path1961" /><path
     d="M 8,7 V 8 H 9 V 7 Z"
     style="fill:#fe93bd;fill-opacity:0.501961"
     id="path1957" /><path
     d="M 7,7 V 8 H 8 V 7 Z"
     style="fill:#fe93bd;fill-opacity:0.501961"
     id="path1956" /><path
     d="M 6,7 V 8 H 7 V 7 Z"
     style="fill:#fe93bd;fill-opacity:0"
     id="path1955" /><path
     d="M 5,7 V 8 H 6 V 7 Z"
     style="fill:#fe93bd;fill-opacity:0"
     id="path1954" /><path
     d="M 4,7 V 8 H 5 V 7 Z"
     style="fill:#fe93bd;fill-opacity:0"
     id="path1953" /><path
     d="M 3,7 V 8 H 4 V 7 Z"
     style="fill:#fe93bd;fill-opacity:0"
     id="path1952" /><path
     d="M 2,7 V 8 H 3 V 7 Z"
     style="fill:#fe93bd;fill-opacity:0.00784314"
     id="path1951" /><path
     d="M 1,7 V 8 H 2 V 7 Z"
     style="fill:#fe93bd;fill-opacity:0.929412"
     id="path1950" /><path
     d="m 15,6 v 1 h 1 V 6 Z"
     style="fill:#fe93bd;fill-opacity:0"
     id="path1948" /><path
     d="m 14,6 v 1 h 1 V 6 Z"
     style="fill:#fe93bd;fill-opacity:0.72549"
     id="path1947" /><path
     d="m 13,6 v 1 h 1 V 6 Z"
     style="fill:#fe93bd;fill-opacity:0.603922"
     id="path1946" /><path
     d="m 12,6 v 1 h 1 V 6 Z"
     style="fill:#fe93bd;fill-opacity:0"
     id="path1945" /><path
     d="m 11,6 v 1 h 1 V 6 Z"
     style="fill:#fe93bd;fill-opacity:0"
     id="path1944" /><path
     d="m 9,6 v 1 h 1 V 6 Z"
     style="fill:#fe93bd;fill-opacity:0.937255"
     id="path1942" /><path
     d="M 8,6 V 7 H 9 V 6 Z"
     style="fill:#fe93bd;fill-opacity:0.8"
     id="path1941" /><path
     d="M 7,6 V 7 H 8 V 6 Z"
     style="fill:#fe93bd;fill-opacity:0.501961"
     id="path1940" /><path
     d="M 6,6 V 7 H 7 V 6 Z"
     style="fill:#fe93bd;fill-opacity:0"
     id="path1939" /><path
     d="M 5,6 V 7 H 6 V 6 Z"
     style="fill:#fe93bd;fill-opacity:0"
     id="path1938" /><path
     d="M 4,6 V 7 H 5 V 6 Z"
     style="fill:#fe93bd;fill-opacity:0"
     id="path1937" /><path
     d="M 3,6 V 7 H 4 V 6 Z"
     style="fill:#fe93bd;fill-opacity:0"
     id="path1936" /><path
     d="M 2,6 V 7 H 3 V 6 Z"
     style="fill:#fe93bd;fill-opacity:0.603922"
     id="path1935" /><path
     d="M 1,6 V 7 H 2 V 6 Z"
     style="fill:#fe93bd;fill-opacity:0.729412"
     id="path1934" /><path
     d="M 0,6 V 7 H 1 V 6 Z"
     style="fill:#fe93bd;fill-opacity:0"
     id="path1933" /><path
     d="m 15,5 v 1 h 1 V 5 Z"
     style="fill:#fe93bd;fill-opacity:0"
     id="path1932" /><path
     d="m 13,5 v 1 h 1 V 5 Z"
     style="fill:#fe93bd;fill-opacity:0.760784"
     id="path1930" /><path
     d="m 12,5 v 1 h 1 V 5 Z"
     style="fill:#fe93bd;fill-opacity:0"
     id="path1929" /><path
     d="m 11,5 v 1 h 1 V 5 Z"
     style="fill:#fe93bd;fill-opacity:0"
     id="path1928" /><path
     d="m 10,5 v 1 h 1 V 5 Z"
     style="fill:#fe93bd;fill-opacity:0"
     id="path1927" /><path
     d="M 8,5 V 6 H 9 V 5 Z"
     style="fill:#fe93bd;fill-opacity:0.898039"
     id="path1925" /><path
     d="M 7,5 V 6 H 8 V 5 Z"
     style="fill:#fe93bd;fill-opacity:0.654902"
     id="path1924" /><path
     d="M 6,5 V 6 H 7 V 5 Z"
     style="fill:#fe93bd;fill-opacity:0"
     id="path1923" /><path
     d="M 5,5 V 6 H 6 V 5 Z"
     style="fill:#fe93bd;fill-opacity:0"
     id="path1922" /><path
     d="M 4,5 V 6 H 5 V 5 Z"
     style="fill:#fe93bd;fill-opacity:0"
     id="path1921" /><path
     d="M 3,5 V 6 H 4 V 5 Z"
     style="fill:#fe93bd;fill-opacity:0"
     id="path1920" /><path
     d="M 2,5 V 6 H 3 V 5 Z"
     style="fill:#fe93bd;fill-opacity:0.760784"
     id="path1919" /><path
     d="M 0,5 V 6 H 1 V 5 Z"
     style="fill:#fe93bd;fill-opacity:0"
     id="path1917" /><path
     d="m 15,4 v 1 h 1 V 4 Z"
     style="fill:#fe93bd;fill-opacity:0"
     id="path1916" /><path
     d="m 13,4 v 1 h 1 V 4 Z"
     style="fill:#fe93bd;fill-opacity:0.682353"
     id="path1914" /><path
     d="m 12,4 v 1 h 1 V 4 Z"
     style="fill:#fe93bd;fill-opacity:0.00392157"
     id="path1913" /><path
     d="m 10,4 v 1 h 1 V 4 Z"
     style="fill:#fe93bd;fill-opacity:0.0196078"
     id="path1911" /><path
     d="m 9,4 v 1 h 1 V 4 Z"
     style="fill:#fe93bd;fill-opacity:0"
     id="path1910" /><path
     d="M 8,4 V 5 H 9 V 4 Z"
     style="fill:#fe93bd;fill-opacity:0.682353"
     id="path1909" /><path
     d="M 7,4 V 5 H 8 V 4 Z"
     style="fill:#fe93bd;fill-opacity:0.670588"
     id="path1908" /><path
     d="M 6,4 V 5 H 7 V 4 Z"
     style="fill:#fe93bd;fill-opacity:0"
     id="path1907" /><path
     d="M 5,4 V 5 H 6 V 4 Z"
     style="fill:#fe93bd;fill-opacity:0.0196078"
     id="path1906" /><path
     d="M 3,4 V 5 H 4 V 4 Z"
     style="fill:#fe93bd;fill-opacity:0.00392157"
     id="path1904" /><path
     d="M 2,4 V 5 H 3 V 4 Z"
     style="fill:#fe93bd;fill-opacity:0.67451"
     id="path1903" /><path
     d="M 0,4 V 5 H 1 V 4 Z"
     style="fill:#fe93bd;fill-opacity:0"
     id="path1901" /><path
     d="m 15,3 v 1 h 1 V 3 Z"
     style="fill:#fe93bd;fill-opacity:0"
     id="path1900" /><path
     d="m 13,3 v 1 h 1 V 3 Z"
     style="fill:#fe93bd;fill-opacity:0.764706"
     id="path1898" /><path
     d="m 12,3 v 1 h 1 V 3 Z"
     style="fill:#fe93bd;fill-opacity:0.898039"
     id="path1897" /><path
     d="m 11,3 v 1 h 1 V 3 Z"
     style="fill:#fe93bd;fill-opacity:0.976471"
     id="path1896" /><path
     d="m 9,3 v 1 h 1 V 3 Z"
     style="fill:#fe93bd;fill-opacity:0"
     id="path1894" /><path
     d="M 8,3 V 4 H 9 V 3 Z"
     style="fill:#fe93bd;fill-opacity:0.592157"
     id="path1893" /><path
     d="M 7,3 V 4 H 8 V 3 Z"
     style="fill:#fe93bd;fill-opacity:0.592157"
     id="path1892" /><path
     d="M 6,3 V 4 H 7 V 3 Z"
     style="fill:#fe93bd;fill-opacity:0"
     id="path1891" /><path
     d="M 4,3 V 4 H 5 V 3 Z"
     style="fill:#fe93bd;fill-opacity:0.976471"
     id="path1889" /><path
     d="M 3,3 V 4 H 4 V 3 Z"
     style="fill:#fe93bd;fill-opacity:0.894118"
     id="path1888" /><path
     d="M 2,3 V 4 H 3 V 3 Z"
     style="fill:#fe93bd;fill-opacity:0.768627"
     id="path1887" /><path
     d="M 0,3 V 4 H 1 V 3 Z"
     style="fill:#fe93bd;fill-opacity:0"
     id="path1885" /><path
     d="m 15,2 v 1 h 1 V 2 Z"
     style="fill:#fe93bd;fill-opacity:0"
     id="path1884" /><path
     d="m 14,2 v 1 h 1 V 2 Z"
     style="fill:#fe93bd;fill-opacity:0"
     id="path1883" /><path
     d="m 13,2 v 1 h 1 V 2 Z"
     style="fill:#fe93bd;fill-opacity:0"
     id="path1882" /><path
     d="m 12,2 v 1 h 1 V 2 Z"
     style="fill:#fe93bd;fill-opacity:0.113725"
     id="path1881" /><path
     d="m 11,2 v 1 h 1 V 2 Z"
     style="fill:#fe93bd;fill-opacity:0.733333"
     id="path1880" /><path
     d="m 10,2 v 1 h 1 V 2 Z"
     style="fill:#fe93bd;fill-opacity:0.352941"
     id="path1879" /><path
     d="m 9,2 v 1 h 1 V 2 Z"
     style="fill:#fe93bd;fill-opacity:0.00392157"
     id="path1878" /><path
     d="M 8,2 V 3 H 9 V 2 Z"
     style="fill:#fe93bd;fill-opacity:0.803922"
     id="path1877" /><path
     d="M 7,2 V 3 H 8 V 2 Z"
     style="fill:#fe93bd;fill-opacity:0.807843"
     id="path1876" /><path
     d="M 6,2 V 3 H 7 V 2 Z"
     style="fill:#fe93bd;fill-opacity:0.00392157"
     id="path1875" /><path
     d="M 5,2 V 3 H 6 V 2 Z"
     style="fill:#fe93bd;fill-opacity:0.345098"
     id="path1874" /><path
     d="M 4,2 V 3 H 5 V 2 Z"
     style="fill:#fe93bd;fill-opacity:0.737255"
     id="path1873" /><path
     d="M 3,2 V 3 H 4 V 2 Z"
     style="fill:#fe93bd;fill-opacity:0.113725"
     id="path1872" /><path
     d="M 2,2 V 3 H 3 V 2 Z"
     style="fill:#fe93bd;fill-opacity:0"
     id="path1871" /><path
     d="M 1,2 V 3 H 2 V 2 Z"
     style="fill:#fe93bd;fill-opacity:0"
     id="path1870" /><path
     d="M 0,2 V 3 H 1 V 2 Z"
     style="fill:#fe93bd;fill-opacity:0"
     id="path1869" /><path
     d="m 15,1 v 1 h 1 V 1 Z"
     style="fill:#fe93bd;fill-opacity:0"
     id="path1868" /><path
     d="m 14,1 v 1 h 1 V 1 Z"
     style="fill:#fe93bd;fill-opacity:0"
     id="path1867" /><path
     d="m 13,1 v 1 h 1 V 1 Z"
     style="fill:#fe93bd;fill-opacity:0"
     id="path1866" /><path
     d="m 12,1 v 1 h 1 V 1 Z"
     style="fill:#fe93bd;fill-opacity:0"
     id="path1865" /><path
     d="m 11,1 v 1 h 1 V 1 Z"
     style="fill:#fe93bd;fill-opacity:0.215686"
     id="path1864" /><path
     d="m 10,1 v 1 h 1 V 1 Z"
     style="fill:#fe93bd;fill-opacity:0.905882"
     id="path1863" /><path
     d="m 9,1 v 1 h 1 V 1 Z"
     style="fill:#fe93bd;fill-opacity:0.894118"
     id="path1862" /><path
     d="M 8,1 V 2 H 9 V 1 Z"
     style="fill:#fe93bd;fill-opacity:0.776471"
     id="path1861" /><path
     d="M 7,1 V 2 H 8 V 1 Z"
     style="fill:#fe93bd;fill-opacity:0.772549"
     id="path1860" /><path
     d="M 6,1 V 2 H 7 V 1 Z"
     style="fill:#fe93bd;fill-opacity:0.898039"
     id="path1859" /><path
     d="M 5,1 V 2 H 6 V 1 Z"
     style="fill:#fe93bd;fill-opacity:0.905882"
     id="path1858" /><path
     d="M 4,1 V 2 H 5 V 1 Z"
     style="fill:#fe93bd;fill-opacity:0.219608"
     id="path1857" /><path
     d="M 3,1 V 2 H 4 V 1 Z"
     style="fill:#fe93bd;fill-opacity:0"
     id="path1856" /><path
     d="M 2,1 V 2 H 3 V 1 Z"
     style="fill:#fe93bd;fill-opacity:0"
     id="path1855" /><path
     d="M 1,1 V 2 H 2 V 1 Z"
     style="fill:#fe93bd;fill-opacity:0"
     id="path1854" /><path
     d="M 0,1 V 2 H 1 V 1 Z"
     style="fill:#fe93bd;fill-opacity:0"
     id="path1853" /><path
     d="m 15,0 v 1 h 1 V 0 Z"
     style="fill:#fe93bd;fill-opacity:0"
     id="path1852" /><path
     d="m 14,0 v 1 h 1 V 0 Z"
     style="fill:#fe93bd;fill-opacity:0"
     id="path1851" /><path
     d="m 13,0 v 1 h 1 V 0 Z"
     style="fill:#fe93bd;fill-opacity:0"
     id="path1850" /><path
     d="m 12,0 v 1 h 1 V 0 Z"
     style="fill:#fe93bd;fill-opacity:0"
     id="path1849" /><path
     d="m 11,0 v 1 h 1 V 0 Z"
     style="fill:#fe93bd;fill-opacity:0"
     id="path1848" /><path
     d="M 8,0 V 1 H 9 V 0 Z"
     style="fill:#fe93bd;fill-opacity:0"
     id="path1845" /><path
     d="M 7,0 V 1 H 8 V 0 Z"
     style="fill:#fe93bd;fill-opacity:0"
     id="path1844" /><path
     d="M 4,0 V 1 H 5 V 0 Z"
     style="fill:#fe93bd;fill-opacity:0"
     id="path1841" /><path
     d="M 3,0 V 1 H 4 V 0 Z"
     style="fill:#fe93bd;fill-opacity:0"
     id="path1840" /><path
     d="M 2,0 V 1 H 3 V 0 Z"
     style="fill:#fe93bd;fill-opacity:0"
     id="path1839" /><path
     d="M 1,0 V 1 H 2 V 0 Z"
     style="fill:#fe93bd;fill-opacity:0"
     id="path1838" /><path
     d="M 0,0 V 1 H 1 V 0 Z"
     style="fill:#fe93bd;fill-opacity:0"
     id="path1837" /><path
     d="m 11,15 v 1 h 1 v -1 z"
     style="fill:#b195af;fill-opacity:0.623529;stroke-width:5.66929"
     id="path1836" /><path
     d="m 12,14 v 1 h 1 v -1 z"
     style="fill:#b195af;fill-opacity:0.623529;stroke-width:5.66929"
     id="path1835" /><path
     d="m 11,14 v 1 h 1 v -1 z"
     style="fill:#b195af;stroke-width:5.66929"
     id="path1834" /><path
     d="m 10,14 v 1 h 1 v -1 z"
     style="fill:#b195af;fill-opacity:0.623529;stroke-width:5.66929"
     id="path1833" /><path
     d="m 13,13 v 1 h 1 v -1 z"
     style="fill:#b195af;fill-opacity:0.137255;stroke-width:5.66929"
     id="path1832" /><path
     d="m 12,13 v 1 h 1 v -1 z"
     style="fill:#b195af;stroke-width:5.66929"
     id="path1831" /><path
     d="m 11,13 v 1 h 1 v -1 z"
     style="fill:#b195af;fill-opacity:0.168627;stroke-width:5.66929"
     id="path1830" /><path
     d="m 10,13 v 1 h 1 v -1 z"
     style="fill:#b195af;fill-opacity:0.905882;stroke-width:5.66929"
     id="path1829" /><path
     d="m 9,13 v 1 h 1 v -1 z"
     style="fill:#b195af;fill-opacity:0.137255;stroke-width:5.66929"
     id="path1828" /><path
     d="m 14,12 v 1 h 1 v -1 z"
     style="fill:#b195af;fill-opacity:0.623529;stroke-width:5.66929"
     id="path1827" /><path
     d="m 13,12 v 1 h 1 v -1 z"
     style="fill:#b195af;stroke-width:5.66929"
     id="path1826" /><path
     d="m 12,12 v 1 h 1 v -1 z"
     style="fill:#b195af;fill-opacity:0.368627;stroke-width:5.66929"
     id="path1825" /><path
     d="m 10,12 v 1 h 1 v -1 z"
     style="fill:#b195af;fill-opacity:0.368627;stroke-width:5.66929"
     id="path1824" /><path
     d="m 9,12 v 1 h 1 v -1 z"
     style="fill:#b195af;fill-opacity:0.921569;stroke-width:5.66929"
     id="path1823" /><path
     d="m 8,12 v 1 h 1 v -1 z"
     style="fill:#b195af;fill-opacity:0.623529;stroke-width:5.66929"
     id="path1822" /><path
     d="m 15,11 v 1 h 1 v -1 z"
     style="fill:#b195af;fill-opacity:0.623529;stroke-width:5.66929"
     id="path1821" /><path
     d="m 14,11 v 1 h 1 v -1 z"
     style="fill:#b195af;stroke-width:5.66929"
     id="path1820" /><path
     d="m 13,11 v 1 h 1 v -1 z"
     style="fill:#b195af;fill-opacity:0.168627;stroke-width:5.66929"
     id="path1819" /><path
     d="m 9,11 v 1 h 1 v -1 z"
     style="fill:#b195af;fill-opacity:0.168627;stroke-width:5.66929"
     id="path1818" /><path
     d="m 8,11 v 1 h 1 v -1 z"
     style="fill:#b195af;fill-opacity:0.980392;stroke-width:5.66929"
     id="path1817" /><path
     d="m 7,11 v 1 h 1 v -1 z"
     style="fill:#b195af;fill-opacity:0.65098;stroke-width:5.66929"
     id="path1816" /><path
     d="m 14,10 v 1 h 1 v -1 z"
     style="fill:#b195af;fill-opacity:0.623529;stroke-width:5.66929"
     id="path1815" /><path
     d="m 13,10 v 1 h 1 v -1 z"
     style="fill:#b195af;stroke-width:5.66929"
     id="path1814" /><path
     d="m 12,10 v 1 h 1 v -1 z"
     style="fill:#b195af;fill-opacity:0.368627;stroke-width:5.66929"
     id="path1813" /><path
     d="m 10,10 v 1 h 1 v -1 z"
     style="fill:#b195af;fill-opacity:0.368627;stroke-width:5.66929"
     id="path1812" /><path
     d="m 9,10 v 1 h 1 v -1 z"
     style="fill:#b195af;stroke-width:5.66929"
     id="path1811" /><path
     d="m 8,10 v 1 h 1 v -1 z"
     style="fill:#b195af;fill-opacity:0.623529;stroke-width:5.66929"
     id="path1810" /><path
     d="m 13,9 v 1 h 1 V 9 Z"
     style="fill:#b195af;fill-opacity:0.137255;stroke-width:5.66929"
     id="path1808" /><path
     d="m 12,9 v 1 h 1 V 9 Z"
     style="fill:#b195af;stroke-width:5.66929"
     id="path1807" /><path
     d="m 11,9 v 1 h 1 V 9 Z"
     style="fill:#b195af;fill-opacity:0.168627;stroke-width:5.66929"
     id="path1806" /><path
     d="m 10,9 v 1 h 1 V 9 Z"
     style="fill:#b195af;stroke-width:5.66929"
     id="path1805" /><path
     d="m 9,9 v 1 h 1 V 9 Z"
     style="fill:#b195af;fill-opacity:0.137255;stroke-width:5.66929"
     id="path1804" /><path
     d="m 12,8 v 1 h 1 V 8 Z"
     style="fill:#b195af;fill-opacity:0.623529;stroke-width:5.66929"
     id="path1803" /><path
     d="m 11,8 v 1 h 1 V 8 Z"
     style="fill:#b195af;stroke-width:5.66929"
     id="path1802" /><path
     d="m 10,8 v 1 h 1 V 8 Z"
     style="fill:#b195af;fill-opacity:0.623529;stroke-width:5.66929"
     id="path1801" /><path
     d="m 11,7 v 1 h 1 V 7 Z"
     style="fill:#b195af;fill-opacity:0.647059;stroke-width:5.66929"
     id="path1800" /></svg>
